<svg width="77" height="80" viewBox="0 0 77 80" fill="none" xmlns="http://www.w3.org/2000/svg">
<path d="M4.28169 24.1389C4.28169 23.5152 4.29769 23.0174 4.28169 22.5197C4.25369 21.846 4.53569 21.3602 5.18569 21.2103C7.05569 20.7784 8.92168 20.1847 10.8177 20.0328C13.8177 19.7929 16.8317 19.8589 19.8397 19.7969C20.0737 19.7969 20.3077 19.7969 20.6637 19.7969V17.1801C20.6637 16.1205 20.6357 15.061 20.6757 14.0035C20.6977 13.4597 20.5397 13.2298 19.9857 13.0899C17.4537 12.4482 14.9357 11.7485 12.4157 11.0688C11.0797 10.709 10.4537 9.9913 10.4617 8.83582C10.4697 7.68034 11.1017 7.00064 12.4617 6.63681C20.2577 4.54308 28.0524 2.44403 35.8457 0.33964C37.2734 -0.0611302 38.784 -0.0611302 40.2117 0.33964C47.8757 2.41604 55.5423 4.47512 63.2117 6.51687C63.4417 6.57684 63.6697 6.64081 63.8977 6.71678C64.9757 7.06062 65.6037 7.83028 65.6257 8.82983C65.6457 9.79739 65.0837 10.587 64.0357 10.9529C63.6217 11.0968 63.4577 11.2827 63.4657 11.7365C63.4917 13.4837 63.4657 15.2309 63.4977 16.9762C63.5144 17.1313 63.5661 17.2806 63.6489 17.4129C63.7317 17.5452 63.8434 17.657 63.9757 17.7398C64.9337 18.2736 65.1337 18.4735 65.8737 19.575C66.0735 19.8529 66.3632 20.0534 66.6937 20.1427C67.9917 20.4846 69.3217 20.7105 70.6097 21.0863C71.7537 21.4182 71.8657 21.6641 71.8697 22.8635C71.8697 23.2533 71.8697 23.6452 71.8697 24.1509C72.8097 24.1509 73.6697 24.1509 74.5317 24.1509C75.7317 24.1509 76.0937 24.5108 76.0937 25.7142C76.0937 41.6217 76.0937 57.5286 76.0937 73.4348C76.0937 74.7202 75.7517 75.05 74.4217 75.05C65.8077 75.05 57.1917 75.116 48.5777 75.016C45.3657 74.9781 42.8117 76.0036 40.8277 78.5165C39.8557 79.7479 38.6017 80.3696 37.0657 79.7939C36.4117 79.548 35.8177 79.0143 35.3237 78.4905C34.2837 77.387 33.2897 76.1955 31.8157 75.7257C30.6459 75.3312 29.4238 75.1129 28.1897 75.078C19.4177 75.026 10.6437 75.05 1.86968 75.05C0.335678 75.05 0.0537109 74.7721 0.0537109 73.2508V25.9281C0.0537109 24.4128 0.331676 24.1409 1.86768 24.1289L4.28169 24.1389ZM6.45571 69.4386C11.5397 68.0632 16.6157 67.5294 21.7497 67.5434C26.8764 67.5525 31.9821 68.1978 36.9497 69.4645V29.7564C35.9317 29.6665 34.9357 29.6045 33.9497 29.4885C29.5281 28.9905 25.2591 27.5756 21.4157 25.3344C21.1676 25.2069 20.9633 25.0082 20.829 24.7639C20.6947 24.5196 20.6364 24.2407 20.6617 23.963C20.6817 23.3353 20.6617 22.7076 20.6617 22.0119C16.1397 21.762 11.7237 21.798 7.35171 22.7616C6.65171 22.9175 6.4397 23.2074 6.4397 23.923C6.46236 38.7684 6.46771 53.6143 6.45571 68.461V69.4386ZM55.3697 22.0279C55.3697 22.6856 55.3377 23.2653 55.3697 23.8391C55.4237 24.5887 55.1297 25.0645 54.4717 25.4384C51.2873 27.2789 47.8023 28.5418 44.1777 29.1687C42.5457 29.4466 40.8917 29.5985 39.2037 29.8124V69.4506C49.3497 66.9737 59.4637 66.8517 69.6877 69.3946V31.4756C69.6877 28.9088 69.6657 26.3399 69.7017 23.7731C69.7017 23.1734 69.4337 22.9155 68.8657 22.7955C68.0657 22.6276 67.1877 22.3178 66.3517 22.4217C66.2792 22.4245 66.2094 22.4497 66.1517 22.4937C66.0397 22.5936 65.9937 22.8195 65.9117 22.9515C65.8297 23.0834 65.6877 23.2373 65.5917 23.3893C65.4801 23.5351 65.4085 23.7075 65.3839 23.8895C65.3594 24.0714 65.3828 24.2566 65.4517 24.4268C65.8117 25.2944 66.1497 26.226 66.2197 27.1476C66.3213 28.8116 66.334 30.4799 66.2577 32.1453C66.2157 33.5447 65.1497 34.5443 63.7477 34.6102C62.9817 34.6402 62.2137 34.6322 61.4477 34.6102C59.7817 34.5782 58.7357 33.5327 58.7157 31.8675C58.6977 30.5441 58.6237 29.2126 58.7397 27.8992C58.8115 26.7984 59.0467 25.7143 59.4377 24.6827C59.7977 23.8031 58.9957 23.4093 58.7477 22.6676C58.6977 22.5177 58.6817 22.3557 58.6277 22.2058C58.4277 21.68 57.7337 21.8999 57.2977 21.9199L55.3697 22.0279ZM36.9457 71.8055C36.7111 71.725 36.472 71.6582 36.2297 71.6056C33.0077 71.0638 29.7997 70.4061 26.5577 70.0263C21.4917 69.4425 16.4277 69.7244 11.4117 70.626C9.54767 70.9639 7.71768 71.4896 5.87368 71.9374C4.85968 72.1833 4.27371 71.7615 4.25371 70.726C4.25371 70.4601 4.25371 70.1962 4.25371 69.9263V26.4119H2.33569V72.819H3.42769C11.6977 72.819 19.9697 72.845 28.2397 72.807C31.5697 72.793 34.2917 74.0065 36.4837 76.4914C38.0277 78.2486 38.1117 78.2426 39.6677 76.4754C41.8417 74.0065 44.5397 72.797 47.8417 72.809C56.1637 72.841 64.4877 72.819 72.8117 72.819H73.8117V26.4579C71.9237 26.122 71.8877 26.15 71.8877 27.9512V69.9483C71.8877 70.2122 71.8877 70.4781 71.8877 70.748C71.8537 71.7475 71.2777 72.1893 70.3257 71.9474C69.7637 71.8035 69.2157 71.6096 68.6537 71.4676C59.4537 69.1507 50.2537 69.2486 41.0397 71.3117C39.2737 71.7115 39.2777 71.7115 39.1977 73.5247C39.1977 73.5507 39.1977 73.5787 39.1977 73.6047C39.1477 74.3463 38.7377 74.8041 38.0957 74.8041C37.4157 74.8201 36.9677 74.3623 36.9397 73.5787C36.9357 72.9929 36.9457 72.4132 36.9457 71.8015V71.8055ZM53.1457 13.9695C52.7857 14.0475 52.5297 14.0895 52.2777 14.1574C48.2777 15.2309 44.2777 16.2925 40.2777 17.396C38.8567 17.8205 37.3446 17.8351 35.9157 17.438C32.6917 16.5264 29.4517 15.6807 26.2177 14.8111C25.1337 14.5193 24.0457 14.2414 22.8677 13.9315V14.9091C22.8677 17.4759 22.9157 20.0428 22.8417 22.6076C22.8177 23.4472 23.1437 23.8071 23.8257 24.1609C27.7201 26.1399 31.9915 27.2671 36.3557 27.4674C42.0457 27.7493 47.4277 26.6458 52.4897 24.003C52.705 23.9146 52.8857 23.7585 53.0044 23.5583C53.1231 23.3581 53.1734 23.1248 53.1477 22.8935C53.1237 20.1967 53.1477 17.4959 53.1477 14.7991L53.1457 13.9695ZM13.1097 8.77186V8.94578C13.3097 9.01175 13.4997 9.08771 13.6997 9.14569C21.3417 11.1968 28.9757 13.2718 36.6317 15.2629C37.5747 15.4832 38.5568 15.4743 39.4957 15.2369C43.5897 14.2194 47.6557 13.0939 51.7317 12.0004C53.0177 11.6566 54.2977 11.2927 55.5817 10.9389C52.6177 10.5391 49.6797 10.2752 46.7397 10.0093C44.1397 9.77339 41.5397 9.5535 38.9397 9.29362C38.0357 9.20166 37.6537 8.76785 37.7077 8.06017C37.7617 7.35248 38.2297 7.01064 39.1377 7.08061C41.2697 7.24454 43.3997 7.43045 45.5377 7.62436C51.0057 8.12214 56.4697 8.62391 61.9377 9.12369C62.2797 9.15368 62.6357 9.02374 62.9837 8.96776C62.8777 8.76785 62.8077 8.74187 62.7317 8.72188C54.8897 6.61083 47.0497 4.48378 39.1937 2.42271C38.3759 2.23176 37.5236 2.24412 36.7117 2.45869C30.9937 3.94003 25.2917 5.49132 19.5877 7.02463C17.4297 7.58438 15.2737 8.17412 13.1177 8.75786L13.1097 8.77186ZM55.3637 19.7149C56.4077 19.7149 57.3637 19.7489 58.2937 19.6929C58.4109 19.7008 58.5285 19.6843 58.6391 19.6444C58.7496 19.6045 58.8506 19.542 58.9357 19.461C59.4957 18.9953 59.7357 18.0617 60.9597 17.5959C61.3877 17.4319 61.3237 17.346 61.3157 16.8902C61.2917 15.3809 61.3157 13.8736 61.3037 12.3642C61.2874 12.1508 61.2586 11.9386 61.2177 11.7285C59.3617 12.2263 57.5777 12.6901 55.8037 13.1959C55.6965 13.2451 55.6029 13.3195 55.5308 13.4128C55.4587 13.5062 55.4103 13.6155 55.3897 13.7316C55.3597 15.7127 55.3717 17.6938 55.3717 19.7009L55.3637 19.7149ZM64.0497 29.5545C64.1177 29.5425 63.8057 26.8917 63.5437 25.5863C63.5096 25.4814 63.4513 25.386 63.3735 25.3079C63.2957 25.2297 63.2005 25.171 63.0957 25.1365C61.8237 24.9366 61.2957 25.2424 61.0957 26.5538C60.9137 27.7533 60.9377 28.9748 60.9257 30.1882C60.9037 32.6211 60.9257 32.6111 63.3537 32.4312C63.8537 32.3952 64.0617 32.2013 64.0457 31.6975C64.0397 30.9699 64.0577 30.2562 64.0577 29.5405L64.0497 29.5545ZM60.7617 21.2942C60.7648 21.7334 60.9419 22.1535 61.2541 22.4626C61.5663 22.7716 61.9883 22.9445 62.4277 22.9435C62.8668 22.9243 63.2811 22.7348 63.5828 22.4154C63.8845 22.0959 64.0498 21.6715 64.0437 21.2322C64.0317 20.8061 63.853 20.4016 63.546 20.1056C63.239 19.8096 62.8282 19.6456 62.4017 19.649C62.1862 19.6446 61.972 19.6838 61.772 19.7643C61.5721 19.8447 61.3904 19.9647 61.238 20.117C61.0856 20.2694 60.9655 20.451 60.8851 20.6508C60.8046 20.8507 60.7653 21.0648 60.7697 21.2802L60.7617 21.2942Z" fill="url(#paint0_linear_1_471)"/>
<defs>
<linearGradient id="paint0_linear_1_471" x1="38.0737" y1="0.0390625" x2="38.0737" y2="80.0105" gradientUnits="userSpaceOnUse">
<stop stop-color="#DA3976"/>
<stop offset="1" stop-color="#F19400"/>
</linearGradient>
</defs>
</svg>
